<svg xmlns="http://www.w3.org/2000/svg" width="51" height="51" viewBox="0 0 51 51">
  <g id="rust-logo-blk" transform="translate(-18.8 -18.7)">
    <path id="Path_212" data-name="Path 212" d="M46.134,23.68A22.354,22.354,0,1,0,68.489,46.034,22.386,22.386,0,0,0,46.134,23.68ZM46.1,25.666a1.471,1.471,0,1,1-1.068.415,1.469,1.469,0,0,1,1.068-.415Zm3.367,2.421a18.1,18.1,0,0,1,12.39,8.824l-1.736,3.916A1.353,1.353,0,0,0,60.8,42.6l3.339,1.48a18.1,18.1,0,0,1,.038,3.14H62.322c-.184,0-.26.123-.26.3v.851c0,2.005-1.13,2.445-2.123,2.554-.946.109-1.991-.4-2.123-.974-.558-3.135-1.485-3.8-2.951-4.961,1.821-1.154,3.712-2.861,3.712-5.14a5.819,5.819,0,0,0-2.837-4.776A8.07,8.07,0,0,0,51.852,33.8h-19.2a18.1,18.1,0,0,1,10.125-5.713l2.265,2.374a1.333,1.333,0,0,0,1.892.043Zm-20.9,10.886a1.471,1.471,0,1,1-1.068.415A1.471,1.471,0,0,1,28.566,38.974Zm35.066.066a1.471,1.471,0,1,1-1.068.415A1.471,1.471,0,0,1,63.632,39.04Zm-32.295.236H33.9V50.834H28.727a18.1,18.1,0,0,1-.586-6.909l3.168-1.409a1.339,1.339,0,0,0,.681-1.769Zm10.7.123h6.105c.317,0,2.227.364,2.227,1.8,0,1.187-1.466,1.613-2.672,1.613H42.029Zm0,8.3h4.677a2.94,2.94,0,0,1,2.875,2.5c.184.728.6,3.1.875,3.864.279.851,1.409,2.554,2.615,2.554h7.633a18.1,18.1,0,0,1-1.674,1.939l-3.107-.667a1.344,1.344,0,0,0-1.594,1.031L53.6,62.364a18.1,18.1,0,0,1-15.09-.071l-.738-3.443a1.339,1.339,0,0,0-1.589-1.031l-3.041.653a18.1,18.1,0,0,1-1.57-1.854H46.357c.166,0,.279-.028.279-.184V51.2c0-.151-.113-.184-.279-.184H42.029ZM35.21,59.682a1.471,1.471,0,1,1-1.068.415,1.471,1.471,0,0,1,1.068-.415Zm21.777.066a1.471,1.471,0,1,1-1.068.415,1.471,1.471,0,0,1,1.068-.415Z" transform="translate(-1.834 -1.834)"/>
    <path id="Path_213" data-name="Path 213" d="M65.406,44.2A21.106,21.106,0,1,1,44.3,23.094,21.106,21.106,0,0,1,65.406,44.2Zm-.4-2.038L68.3,44.2l-3.291,2.038,2.828,2.644-3.622,1.357,2.26,3.145-3.826.624,1.608,3.528L60.384,57.4l.889,3.774L57.5,60.284l.137,3.873-3.528-1.608-.624,3.826-3.145-2.26-1.357,3.622-2.644-2.828L44.3,68.2l-2.038-3.291-2.644,2.828-1.357-3.622-3.145,2.26-.624-3.826-3.528,1.608.137-3.873-3.774.889.889-3.774-3.873.137,1.608-3.528-3.826-.624,2.26-3.145-3.622-1.357,2.828-2.644L20.3,44.2l3.291-2.038-2.828-2.644,3.622-1.357-2.26-3.145,3.826-.624-1.608-3.528L28.216,31l-.889-3.774,3.774.889-.137-3.873,3.528,1.608.624-3.826,3.145,2.26,1.357-3.622,2.644,2.828L44.3,20.2l2.038,3.291,2.644-2.828,1.357,3.622,3.145-2.26.624,3.826,3.528-1.608L57.5,28.116l3.774-.889L60.384,31l3.873-.137-1.608,3.528,3.826.624-2.26,3.145,3.622,1.357Z" transform="translate(0 0)" stroke="#000" stroke-linecap="round" stroke-linejoin="round" stroke-width="3" fill-rule="evenodd"/>
  </g>
</svg>
