<svg id="Component_14_1" data-name="Component 14 – 1" xmlns="http://www.w3.org/2000/svg" width="66.601" height="48" viewBox="0 0 66.601 48">
  <g id="Layer_2" data-name="Layer 2" transform="translate(-195 -204)">
    <g id="Layer_1" data-name="Layer 1">
      <path id="Path_214" data-name="Path 214" d="M18.372,24h0a6.358,6.358,0,0,1,6.358-6.369h-.036A6.358,6.358,0,0,1,31.052,24h0a6.358,6.358,0,0,1-6.358,6.358h.036A6.358,6.358,0,0,1,18.372,24ZM48.119,12.727H59.957a6.358,6.358,0,0,0,6.358-6.358h0A6.358,6.358,0,0,0,59.957,0H48.119a6.358,6.358,0,0,0-6.358,6.369h0a6.358,6.358,0,0,0,6.358,6.358ZM7.459,47.989H30.451a6.358,6.358,0,0,0,6.358-6.358h0a6.358,6.358,0,0,0-6.358-6.369H7.459A6.358,6.358,0,0,0,1.1,41.631h0A6.358,6.358,0,0,0,7.459,47.989Zm30.2-17.631H39.9l5.253-12.727h-3l-3.2,8.348h-.036l-3.148-8.348h-3.2Zm11.676,0h2.807V17.631H49.331Zm7.988,0H66.3v-2.58H60.126V25.187h5.523V22.6H60.126V20.222h5.847V17.631H57.337ZM3.634,12.738H6.441V2.483h3.634V0H0V2.483H3.634Zm10.4,0H16.84V7.232h5.433v5.505h2.807V0H22.273V4.75H16.822V0H14.033Zm14.843,0h9V10.147H31.664V7.556h5.523V4.966H31.664V2.591h5.847V0H28.875ZM.45,30.369H3.238V20.6h.036l3.238,9.769H8.636L11.982,20.6h.036v9.769h2.807V17.631H10.6L7.646,25.943H7.61L4.678,17.631H.432ZM40.782,48h4.555a8.848,8.848,0,0,0,2.72-.414,7.024,7.024,0,0,0,2.285-1.213,5.89,5.89,0,0,0,1.572-1.979,6.085,6.085,0,0,0,.619-2.727,6.657,6.657,0,0,0-.6-2.969,5.433,5.433,0,0,0-1.626-1.99,6.675,6.675,0,0,0-2.422-1.087,12.068,12.068,0,0,0-2.9-.36H40.764Zm2.81-10.147h1.655a6.272,6.272,0,0,1,1.68.223,4.2,4.2,0,0,1,1.4.676,3.238,3.238,0,0,1,.943,1.144,3.551,3.551,0,0,1,.36,1.626,4.289,4.289,0,0,1-.36,1.828,3.127,3.127,0,0,1-.961,1.2,3.911,3.911,0,0,1-1.439.658,7.762,7.762,0,0,1-1.8.2H43.574ZM56.6,48h5.217a8.315,8.315,0,0,0,1.7-.18,4.814,4.814,0,0,0,1.536-.594,3.39,3.39,0,0,0,1.115-1.079,3.066,3.066,0,0,0,.432-1.684,3.3,3.3,0,0,0-.2-1.151,2.8,2.8,0,0,0-.565-.943,3.015,3.015,0,0,0-.882-.666,3.6,3.6,0,0,0-1.144-.36v-.036A3.339,3.339,0,0,0,65.4,40.293a2.67,2.67,0,0,0,.6-1.8,3,3,0,0,0-.414-1.673,2.835,2.835,0,0,0-1.079-.982,4.642,4.642,0,0,0-1.5-.468,12.384,12.384,0,0,0-1.666-.115H56.6ZM59.4,37.637H61.31a3.882,3.882,0,0,1,.666.061,2.076,2.076,0,0,1,.612.209,1.2,1.2,0,0,1,.443.407,1.159,1.159,0,0,1,.169.655,1.306,1.306,0,0,1-.151.648,1.2,1.2,0,0,1-.407.432,1.72,1.72,0,0,1-.565.234,2.936,2.936,0,0,1-.64.072H59.37Zm0,5.091h2.123a5.44,5.44,0,0,1,.738.054,2.817,2.817,0,0,1,.72.2,1.439,1.439,0,0,1,.569.421,1.126,1.126,0,0,1,.223.72,1.335,1.335,0,0,1-.169.7,1.439,1.439,0,0,1-.443.468,1.72,1.72,0,0,1-.6.252,3.206,3.206,0,0,1-.658.072H59.385Z" transform="translate(195 204)"/>
    </g>
  </g>
</svg>
